<?xml version="1.0" encoding="UTF-8"?>
<!-- Simple, original SVG illustration representing a friendly pharmacy / healthcare scene. No external copyright. -->
<svg width="1200" height="800" viewBox="0 0 1200 800" fill="none" xmlns="http://www.w3.org/2000/svg" xmlns:xlink="http://www.w3.org/1999/xlink">
  <rect width="1200" height="800" rx="24" fill="#061426"/>
  <g transform="translate(80,80)">
    <rect x="0" y="0" width="480" height="320" rx="16" fill="#0B1F2D" />
    <circle cx="420" cy="120" r="120" fill="#0F1724" />
    <g transform="translate(40,24)">
      <rect x="24" y="24" width="120" height="120" rx="12" fill="#14B8A6" />
      <rect x="160" y="24" width="280" height="28" rx="8" fill="#0EA5E9" />
      <rect x="160" y="64" width="200" height="20" rx="6" fill="#9CA3AF" />
      <rect x="160" y="96" width="240" height="20" rx="6" fill="#9CA3AF" />
    </g>

    <g transform="translate(540,40)">
      <rect x="0" y="0" width="520" height="360" rx="12" fill="#071428" />
      <!-- stylized storefront -->
      <rect x="28" y="44" width="120" height="120" rx="8" fill="#0B2B25" />
      <rect x="168" y="48" width="320" height="28" rx="6" fill="#14B8A6" />
      <rect x="168" y="90" width="220" height="20" rx="6" fill="#9CA3AF" />
      <g transform="translate(28,188)">
        <rect x="0" y="0" width="460" height="8" rx="4" fill="#0EA5E9" />
        <rect x="0" y="24" width="120" height="8" rx="4" fill="#14B8A6" />
        <rect x="140" y="24" width="120" height="8" rx="4" fill="#14B8A6" />
      </g>
    </g>

    <g transform="translate(120,420)">
      <rect x="0" y="0" width="920" height="200" rx="12" fill="#071425" />
      <g transform="translate(28,28)">
        <rect x="0" y="0" width="160" height="140" rx="8" fill="#0B2B25" />
        <path d="M200 24h240v20H200z" fill="#14B8A6" />
        <path d="M200 64h160v14H200z" fill="#9CA3AF" />
        <circle cx="680" cy="70" r="36" fill="#14B8A6" />
        <path d="M664 58v24M652 70h36" stroke="#061426" stroke-width="6" stroke-linecap="round" stroke-linejoin="round"/>
      </g>
    </g>
  </g>
</svg>
